<svg xmlns="http://www.w3.org/2000/svg" version="1.1" xmlns:xlink="http://www.w3.org/1999/xlink" xmlns:svgjs="http://svgjs.dev/svgjs" width="1440" height="560" preserveAspectRatio="none" viewBox="0 0 1440 560">
    <g mask="url(&quot;#SvgjsMask1010&quot;)" fill="none">
        <path d="M502.09 47.31a42.96 42.96 0 1 0-53.57-67.18z" fill="rgba(0, 58, 108, 1)"></path>
        <path d="M1233.09 481.77 a22.09 22.09 0 1 0 44.18 0 a22.09 22.09 0 1 0 -44.18 0z" fill="rgba(253, 137, 115, 1)"></path>
        <path d="M565.09 404.41 a28.92 28.92 0 1 0 57.84 0 a28.92 28.92 0 1 0 -57.84 0z" stroke="rgba(0, 58, 108, 1)"></path>
        <path d="M215.66 409.28 a31.1 31.1 0 1 0 62.2 0 a31.1 31.1 0 1 0 -62.2 0z" fill="rgba(253, 137, 115, 1)"></path>
        <path d="M1406.15 228.81L1444.21 228.81L1444.21 266.87L1406.15 266.87z" stroke="rgba(255, 191, 101, 1)"></path>
        <path d="M821.62 505.64L863.21 505.64L863.21 547.23L821.62 547.23z" fill="rgba(0, 58, 108, 1)"></path>
        <path d="M257.02 71.84L273.85 71.84L273.85 88.67L257.02 88.67z" stroke="rgba(253, 137, 115, 1)"></path>
        <path d="M178.73 321.24a5.05 5.05 0 1 0 8.36-5.66z" fill="rgba(253, 137, 115, 1)"></path>
        <path d="M1268.5 339.39a33.67 33.67 0 1 0-5.42 67.12z" fill="rgba(255, 191, 101, 1)"></path>
        <path d="M881.46 146.38 a30.93 30.93 0 1 0 61.86 0 a30.93 30.93 0 1 0 -61.86 0z" fill="rgba(255, 191, 101, 1)"></path>
        <path d="M480.4 67.91 a31.02 31.02 0 1 0 62.04 0 a31.02 31.02 0 1 0 -62.04 0z" fill="rgba(255, 191, 101, 1)"></path>
        <path d="M959.69 268.98L1010.9 268.98L1010.9 271.8L959.69 271.8z" fill="rgba(255, 191, 101, 1)"></path>
        <path d="M1082.86 377.06L1128.31 377.06L1128.31 422.51L1082.86 422.51z" stroke="rgba(253, 137, 115, 1)"></path>
        <path d="M267.91 540.06L282.35 540.06L282.35 562.25L267.91 562.25z" stroke="rgba(255, 191, 101, 1)"></path>
        <path d="M1361.45 534.35 a10.21 10.21 0 1 0 20.42 0 a10.21 10.21 0 1 0 -20.42 0z" fill="rgba(253, 137, 115, 1)"></path>
        <path d="M1391.17 377.17 a48.8 48.8 0 1 0 97.6 0 a48.8 48.8 0 1 0 -97.6 0z" stroke="rgba(255, 191, 101, 1)"></path>
        <path d="M302.25 59.31 a45.57 45.57 0 1 0 91.14 0 a45.57 45.57 0 1 0 -91.14 0z" stroke="rgba(253, 137, 115, 1)"></path>
        <path d="M1042.68 127.69L1083.48 127.69L1083.48 133.17L1042.68 133.17z" fill="rgba(0, 58, 108, 1)"></path>
        <path d="M432.55 492.73L485.13 492.73L485.13 545.31L432.55 545.31z" fill="rgba(253, 137, 115, 1)"></path>
        <path d="M876.89 273.99L881.2 273.99L881.2 278.3L876.89 278.3z" fill="rgba(253, 137, 115, 1)"></path>
        <path d="M296.92 318.93L349.05 318.93L349.05 371.06L296.92 371.06z" stroke="rgba(0, 58, 108, 1)"></path>
        <path d="M1269.34 374.79L1281.78 374.79L1281.78 386.7L1269.34 386.7z" fill="rgba(0, 58, 108, 1)"></path>
        <path d="M834.66 417.65L855.62 417.65L855.62 438.61L834.66 438.61z" fill="rgba(255, 191, 101, 1)"></path>
        <path d="M497.35 395.11a13.87 13.87 0 1 0 26.68 7.62z" fill="rgba(255, 191, 101, 1)"></path>
        <path d="M767.02 66.85L821.55 66.85L821.55 85.26L767.02 85.26z" stroke="rgba(253, 137, 115, 1)"></path>
        <path d="M540.44 150.84 a54.7 54.7 0 1 0 109.4 0 a54.7 54.7 0 1 0 -109.4 0z" fill="rgba(253, 137, 115, 1)"></path>
        <path d="M1066.85 355.92L1122.36 355.92L1122.36 371.73L1066.85 371.73z" fill="rgba(255, 191, 101, 1)"></path>
        <path d="M435.61 438.73 a51.55 51.55 0 1 0 103.1 0 a51.55 51.55 0 1 0 -103.1 0z" stroke="rgba(255, 191, 101, 1)"></path>
        <path d="M720.32 265.92 a6.06 6.06 0 1 0 12.12 0 a6.06 6.06 0 1 0 -12.12 0z" stroke="rgba(253, 137, 115, 1)"></path>
        <path d="M1131.82 159.34L1174.53 159.34L1174.53 196.77L1131.82 196.77z" fill="rgba(253, 137, 115, 1)"></path>
        <path d="M1111.03 323.55 a3.87 3.87 0 1 0 7.74 0 a3.87 3.87 0 1 0 -7.74 0z" fill="rgba(253, 137, 115, 1)"></path>
        <path d="M778.32 193.09 a8.63 8.63 0 1 0 17.26 0 a8.63 8.63 0 1 0 -17.26 0z" fill="rgba(255, 191, 101, 1)"></path>
        <path d="M1375.86 451.13L1393.72 451.13L1393.72 460.72L1375.86 460.72z" stroke="rgba(253, 137, 115, 1)"></path>
    </g>
    <defs>
        <mask id="SvgjsMask1010">
            <rect width="1440" height="560" fill="#ffffff"></rect>
        </mask>
    </defs>
</svg>