<svg id="visual" viewBox="0 0 2560 1300" width="2560" height="1300" xmlns="http://www.w3.org/2000/svg" xmlns:xlink="http://www.w3.org/1999/xlink" version="1.1"><path d="M0 867L61 880.3C122 893.7 244 920.3 365.8 915.3C487.7 910.3 609.3 873.7 731.2 855.3C853 837 975 837 1097 839.8C1219 842.7 1341 848.3 1463 870.5C1585 892.7 1707 931.3 1828.8 935.8C1950.7 940.3 2072.3 910.7 2194.2 898C2316 885.3 2438 889.7 2499 891.8L2560 894L2560 1301L2499 1301C2438 1301 2316 1301 2194.2 1301C2072.3 1301 1950.7 1301 1828.8 1301C1707 1301 1585 1301 1463 1301C1341 1301 1219 1301 1097 1301C975 1301 853 1301 731.2 1301C609.3 1301 487.7 1301 365.8 1301C244 1301 122 1301 61 1301L0 1301Z" fill="#3d61ff"></path><path d="M0 1006L61 1006.3C122 1006.7 244 1007.3 365.8 1014.5C487.7 1021.7 609.3 1035.3 731.2 1051C853 1066.7 975 1084.3 1097 1088.8C1219 1093.3 1341 1084.7 1463 1064C1585 1043.3 1707 1010.7 1828.8 994.5C1950.7 978.3 2072.3 978.7 2194.2 980C2316 981.3 2438 983.7 2499 984.8L2560 986L2560 1301L2499 1301C2438 1301 2316 1301 2194.2 1301C2072.3 1301 1950.7 1301 1828.8 1301C1707 1301 1585 1301 1463 1301C1341 1301 1219 1301 1097 1301C975 1301 853 1301 731.2 1301C609.3 1301 487.7 1301 365.8 1301C244 1301 122 1301 61 1301L0 1301Z" fill="#2f4cba"></path><path d="M0 1114L61 1111.5C122 1109 244 1104 365.8 1107.2C487.7 1110.3 609.3 1121.7 731.2 1127.5C853 1133.3 975 1133.7 1097 1127.3C1219 1121 1341 1108 1463 1104.2C1585 1100.3 1707 1105.7 1828.8 1127.3C1950.7 1149 2072.3 1187 2194.2 1190.2C2316 1193.3 2438 1161.7 2499 1145.8L2560 1130L2560 1301L2499 1301C2438 1301 2316 1301 2194.2 1301C2072.3 1301 1950.7 1301 1828.8 1301C1707 1301 1585 1301 1463 1301C1341 1301 1219 1301 1097 1301C975 1301 853 1301 731.2 1301C609.3 1301 487.7 1301 365.8 1301C244 1301 122 1301 61 1301L0 1301Z" fill="#273678"></path></svg>