<?xml version="1.0" standalone="no"?>
<!DOCTYPE svg PUBLIC "-//W3C//DTD SVG 20010904//EN"
 "http://www.w3.org/TR/2001/REC-SVG-20010904/DTD/svg10.dtd">
<svg version="1.0" xmlns="http://www.w3.org/2000/svg"
 width="768.000000pt" height="512.000000pt" viewBox="0 0 768.000000 512.000000"
 preserveAspectRatio="xMidYMid meet">

<g transform="translate(0.000000,512.000000) scale(0.100000,-0.100000)"
fill="#000000" stroke="none">
<path d="M5447 3702 c-69 -28 -148 -86 -168 -125 -11 -20 -11 -21 4 -8 10 7
17 9 17 4 0 -16 -22 -32 -36 -26 -8 3 -14 0 -14 -7 0 -6 -4 -9 -9 -5 -5 3 -31
-21 -57 -52 -72 -89 -77 -91 -124 -49 -73 66 -212 84 -306 40 -65 -31 -158
-131 -185 -199 -22 -55 -24 -75 -25 -235 0 -180 -5 -223 -31 -275 -11 -21 10
-5 71 54 86 83 87 84 107 65 35 -32 61 -74 55 -90 -5 -13 -9 -13 -35 1 -35 18
-41 18 -41 4 0 -5 -55 -64 -122 -129 -68 -66 -117 -120 -111 -120 7 0 61 46
119 103 117 113 131 124 145 110 6 -6 -4 -23 -28 -45 -21 -19 -83 -83 -138
-144 -190 -207 -340 -369 -429 -461 l-90 -93 -23 22 c-13 12 -23 27 -23 34 0
38 -221 192 -432 302 -187 97 -255 142 -320 209 -68 72 -100 128 -128 221 -30
99 -25 256 11 347 48 121 178 228 329 270 l55 15 -85 -4 c-99 -4 -163 -27
-255 -92 -163 -114 -223 -245 -211 -464 5 -83 3 -99 -5 -75 -6 17 -12 93 -13
170 -1 129 1 146 27 222 55 159 161 273 309 335 64 26 89 31 195 36 110 4 129
2 184 -17 33 -13 63 -21 65 -18 11 10 -86 81 -161 117 -151 74 -359 90 -517
41 -272 -86 -462 -399 -428 -704 13 -114 33 -182 78 -272 101 -203 306 -440
642 -741 217 -195 289 -264 295 -285 3 -10 -2 -33 -11 -51 -20 -40 -89 -134
-104 -143 -6 -4 -25 -25 -41 -47 -30 -42 -40 -110 -18 -124 14 -9 63 39 106
106 46 70 132 160 153 160 27 0 167 -128 226 -207 31 -41 61 -72 67 -70 16 5
35 66 36 112 1 56 -23 144 -60 217 -17 34 -40 91 -49 127 l-18 65 76 83 c54
59 80 82 91 77 67 -28 66 -28 107 -1 47 32 81 34 128 6 29 -17 44 -19 78 -14
62 11 116 41 138 78 24 39 26 113 5 144 -22 31 -78 63 -126 71 l-42 7 58 57
c31 31 78 66 102 79 46 24 138 97 253 201 80 73 179 140 197 134 20 -8 16 0
-17 38 -17 19 -44 38 -61 41 -17 4 -29 11 -27 15 2 5 95 87 207 183 135 116
209 173 221 170 10 -3 23 6 35 24 10 15 17 28 14 28 -5 1 4 12 87 105 36 41
78 93 93 115 30 44 79 173 83 220 3 28 1 30 -37 32 -25 2 -65 -7 -108 -25z
m-2277 -72 c-8 -5 -19 -10 -25 -10 -5 0 -3 5 5 10 8 5 20 10 25 10 6 0 3 -5
-5 -10z m-61 -34 c-2 -2 -34 -22 -70 -45 -97 -60 -188 -167 -229 -269 -21 -53
-23 -29 -1 27 25 66 100 171 154 214 43 36 139 88 146 81 2 -2 2 -6 0 -8z
m1742 -156 c-20 -17 -54 -30 -156 -57 -30 -8 -6 14 52 48 31 19 62 29 88 28
l40 0 -24 -19z m469 -74 c0 -9 -151 -138 -156 -133 -10 9 118 137 137 137 11
0 19 -2 19 -4z"/>
<path d="M3965 3105 c-53 -19 -130 -100 -144 -153 -25 -91 9 -170 124 -291 40
-42 80 -90 89 -108 18 -36 21 -99 6 -139 -6 -15 -8 -29 -6 -32 3 -2 32 20 64
49 32 30 96 74 142 99 90 47 214 155 232 200 13 34 12 148 -2 185 -14 36 -55
82 -92 101 -40 21 -130 18 -160 -5 -44 -35 -59 -31 -92 26 -22 39 -39 56 -68
68 -46 18 -42 18 -93 0z m-15 -85 c0 -5 -2 -10 -4 -10 -3 0 -8 5 -11 10 -3 6
-1 10 4 10 6 0 11 -4 11 -10z"/>
<path d="M4362 2483 c-59 -59 -142 -151 -176 -194 -10 -13 -50 -57 -89 -96
-46 -47 -68 -76 -62 -82 7 -7 16 -7 25 -1 10 7 11 10 3 10 -20 0 -15 18 7 25
20 6 343 344 361 377 19 36 -12 18 -69 -39z"/>
</g>
</svg>
